<?xml version="1.0" encoding="utf-8"?>
<!-- Generator: Adobe Illustrator 21.0.0, SVG Export Plug-In . SVG Version: 6.00 Build 0)  -->
<svg version="1.1" id="레이어_1" xmlns="http://www.w3.org/2000/svg" xmlns:xlink="http://www.w3.org/1999/xlink" x="0px"
	 y="0px" viewBox="0 0 200 200" style="enable-background:new 0 0 200 200;" xml:space="preserve">
<style type="text/css">
	.st0{fill:#1A2C5A;}
	.st1{fill:#AB242C;}
</style>
<g>
	<g>
		<polygon class="st0" points="79.2,140.6 138.3,199.8 144.2,199.8 144.2,193.9 85.1,134.9 		"/>
		<polygon class="st0" points="120.8,199.8 132.4,199.8 55.7,123.1 44.1,123.1 		"/>
		<polygon class="st0" points="144.2,176.3 91,123.1 79.2,123.1 144.2,188 		"/>
		<polygon class="st0" points="73.4,123.1 61.6,123.1 76.4,137.8 82.3,131.9 		"/>
	</g>
	<polygon class="st0" points="55.7,123.1 73.4,105.5 67.6,99.6 44.1,123.1 	"/>
	<polygon class="st0" points="122.8,44.3 128.7,50.2 178.6,0.2 166.9,0.2 	"/>
	<polygon class="st0" points="131.7,53 137.6,58.9 190.4,6.1 190.4,0.2 184.5,0.2 	"/>
	<polygon class="st0" points="119.9,47.1 70.5,96.6 73.4,99.6 76.4,102.4 125.8,53 122.8,50.2 	"/>
	<polygon class="st0" points="143.4,70.7 137.6,64.8 88.2,114.2 91,117.2 93.9,120.1 	"/>
	<polygon class="st0" points="140.4,61.9 146.3,67.8 190.4,23.7 190.4,12 	"/>
	<polygon class="st0" points="134.5,61.9 128.7,56 61.6,123.1 73.4,123.1 	"/>
	<polyline class="st0" points="91,123.1 85.1,117.2 79.2,123.1 	"/>
	<path id="XMLID_2_" class="st1" d="M42.3,151.1v48.7H9.6V44.7h32.7v66.5"/>
</g>
</svg>
